<mxfile host="Electron" modified="2023-04-22T05:59:15.735Z" agent="Mozilla/5.0 (X11; Linux x86_64) AppleWebKit/537.36 (KHTML, like Gecko) draw.io/21.2.1 Chrome/112.0.5615.87 Electron/24.1.2 Safari/537.36" etag="6xbfGh6pVg_O_mG3vPVf" version="21.2.1" type="device">
  <diagram name="Page-1" id="MQctU9XN5ehkf-0blgBi">
    <mxGraphModel dx="2800" dy="1647" grid="1" gridSize="10" guides="1" tooltips="1" connect="1" arrows="1" fold="1" page="1" pageScale="1" pageWidth="850" pageHeight="1100" math="0" shadow="0">
      <root>
        <mxCell id="0" />
        <mxCell id="1" parent="0" />
        <mxCell id="Objv7hpHMwCVzTa5Py58-3" value="" style="rounded=0;orthogonalLoop=1;jettySize=auto;html=1;" parent="1" source="Objv7hpHMwCVzTa5Py58-1" target="Objv7hpHMwCVzTa5Py58-2" edge="1">
          <mxGeometry relative="1" as="geometry" />
        </mxCell>
        <mxCell id="Objv7hpHMwCVzTa5Py58-7" value="" style="edgeStyle=none;rounded=0;orthogonalLoop=1;jettySize=auto;html=1;" parent="1" source="Objv7hpHMwCVzTa5Py58-1" target="Objv7hpHMwCVzTa5Py58-6" edge="1">
          <mxGeometry relative="1" as="geometry" />
        </mxCell>
        <mxCell id="Objv7hpHMwCVzTa5Py58-33" value="" style="edgeStyle=none;rounded=0;orthogonalLoop=1;jettySize=auto;html=1;" parent="1" source="Objv7hpHMwCVzTa5Py58-1" target="Objv7hpHMwCVzTa5Py58-32" edge="1">
          <mxGeometry relative="1" as="geometry" />
        </mxCell>
        <mxCell id="Objv7hpHMwCVzTa5Py58-1" value="&lt;b&gt;sound&lt;/b&gt;" style="rounded=0;whiteSpace=wrap;html=1;fillColor=#d5e8d4;strokeColor=#82b366;" parent="1" vertex="1">
          <mxGeometry x="150" y="500" width="120" height="60" as="geometry" />
        </mxCell>
        <mxCell id="SYgnEToG3LxWcjJeetzG-1" value="&lt;b&gt;sound&lt;/b&gt;" style="rounded=0;whiteSpace=wrap;html=1;fillColor=#d5e8d4;strokeColor=#82b366;" parent="1" vertex="1">
          <mxGeometry x="1370" y="500" width="120" height="60" as="geometry" />
        </mxCell>
        <mxCell id="SYgnEToG3LxWcjJeetzG-2" value="" style="edgeStyle=orthogonalEdgeStyle;rounded=0;orthogonalLoop=1;jettySize=auto;html=1;" parent="1" source="Objv7hpHMwCVzTa5Py58-30" target="SYgnEToG3LxWcjJeetzG-1" edge="1">
          <mxGeometry relative="1" as="geometry" />
        </mxCell>
        <mxCell id="Objv7hpHMwCVzTa5Py58-2" value="&lt;b&gt;MFCC&lt;/b&gt;" style="rounded=0;whiteSpace=wrap;html=1;fillColor=#f8cecc;strokeColor=#b85450;" parent="1" vertex="1">
          <mxGeometry x="355" y="580" width="120" height="60" as="geometry" />
        </mxCell>
        <mxCell id="Objv7hpHMwCVzTa5Py58-6" value="&lt;b&gt;f0&lt;/b&gt;" style="rounded=0;whiteSpace=wrap;html=1;fillColor=#f8cecc;strokeColor=#b85450;" parent="1" vertex="1">
          <mxGeometry x="355" y="420" width="120" height="60" as="geometry" />
        </mxCell>
        <mxCell id="Objv7hpHMwCVzTa5Py58-32" value="&lt;b&gt;loudness&lt;/b&gt;" style="rounded=0;whiteSpace=wrap;html=1;fillColor=#f8cecc;strokeColor=#b85450;" parent="1" vertex="1">
          <mxGeometry x="355" y="500" width="120" height="60" as="geometry" />
        </mxCell>
        <mxCell id="Objv7hpHMwCVzTa5Py58-5" value="" style="rounded=0;orthogonalLoop=1;jettySize=auto;html=1;" parent="1" source="Objv7hpHMwCVzTa5Py58-2" target="Objv7hpHMwCVzTa5Py58-4" edge="1">
          <mxGeometry relative="1" as="geometry" />
        </mxCell>
        <mxCell id="Objv7hpHMwCVzTa5Py58-13" style="edgeStyle=none;rounded=0;orthogonalLoop=1;jettySize=auto;html=1;" parent="1" source="Objv7hpHMwCVzTa5Py58-6" target="Objv7hpHMwCVzTa5Py58-9" edge="1">
          <mxGeometry relative="1" as="geometry">
            <Array as="points">
              <mxPoint x="720" y="450" />
              <mxPoint x="720" y="530" />
            </Array>
          </mxGeometry>
        </mxCell>
        <mxCell id="Objv7hpHMwCVzTa5Py58-34" style="edgeStyle=none;rounded=0;orthogonalLoop=1;jettySize=auto;html=1;" parent="1" source="Objv7hpHMwCVzTa5Py58-32" target="Objv7hpHMwCVzTa5Py58-9" edge="1">
          <mxGeometry relative="1" as="geometry" />
        </mxCell>
        <mxCell id="Objv7hpHMwCVzTa5Py58-28" value="&lt;b&gt;to time domain&lt;/b&gt;" style="rounded=0;whiteSpace=wrap;html=1;fillColor=#f8cecc;strokeColor=#b85450;" parent="1" vertex="1">
          <mxGeometry x="1030" y="500" width="120" height="60" as="geometry" />
        </mxCell>
        <mxCell id="Objv7hpHMwCVzTa5Py58-30" value="&lt;b&gt;scale loudness&lt;/b&gt;" style="rounded=0;whiteSpace=wrap;html=1;fillColor=#f8cecc;strokeColor=#b85450;" parent="1" vertex="1">
          <mxGeometry x="1200" y="500" width="120" height="60" as="geometry" />
        </mxCell>
        <mxCell id="Objv7hpHMwCVzTa5Py58-29" value="" style="edgeStyle=none;rounded=0;orthogonalLoop=1;jettySize=auto;html=1;" parent="1" source="Objv7hpHMwCVzTa5Py58-9" target="Objv7hpHMwCVzTa5Py58-28" edge="1">
          <mxGeometry relative="1" as="geometry" />
        </mxCell>
        <mxCell id="Objv7hpHMwCVzTa5Py58-31" value="" style="edgeStyle=none;rounded=0;orthogonalLoop=1;jettySize=auto;html=1;" parent="1" source="Objv7hpHMwCVzTa5Py58-28" target="Objv7hpHMwCVzTa5Py58-30" edge="1">
          <mxGeometry relative="1" as="geometry" />
        </mxCell>
        <mxCell id="s2oemkyCUpfugdkir3hg-1" value="Vertical Container" style="swimlane;whiteSpace=wrap;html=1;" vertex="1" parent="1">
          <mxGeometry x="550" y="380" width="440" height="350" as="geometry" />
        </mxCell>
        <mxCell id="Objv7hpHMwCVzTa5Py58-4" value="&lt;b&gt;zip&lt;br&gt;&lt;/b&gt;(new hidden state)&lt;b&gt;&lt;br&gt;&lt;/b&gt;" style="rounded=0;whiteSpace=wrap;html=1;fillColor=#dae8fc;strokeColor=#6c8ebf;" parent="s2oemkyCUpfugdkir3hg-1" vertex="1">
          <mxGeometry x="30" y="200" width="120" height="60" as="geometry" />
        </mxCell>
        <mxCell id="Objv7hpHMwCVzTa5Py58-9" value="&lt;b&gt;recover spectrum&lt;/b&gt;" style="rounded=0;whiteSpace=wrap;html=1;fillColor=#dae8fc;strokeColor=#6c8ebf;" parent="s2oemkyCUpfugdkir3hg-1" vertex="1">
          <mxGeometry x="235" y="120" width="120" height="60" as="geometry" />
        </mxCell>
        <mxCell id="Objv7hpHMwCVzTa5Py58-22" value="&lt;b&gt;MFCC&lt;/b&gt;&lt;b&gt;&lt;br&gt;&lt;/b&gt;" style="rounded=0;whiteSpace=wrap;html=1;fillColor=#f8cecc;strokeColor=#b85450;" parent="s2oemkyCUpfugdkir3hg-1" vertex="1">
          <mxGeometry x="235" y="270" width="120" height="60" as="geometry" />
        </mxCell>
        <mxCell id="Objv7hpHMwCVzTa5Py58-14" style="edgeStyle=none;rounded=0;orthogonalLoop=1;jettySize=auto;html=1;" parent="s2oemkyCUpfugdkir3hg-1" source="Objv7hpHMwCVzTa5Py58-9" target="Objv7hpHMwCVzTa5Py58-9" edge="1">
          <mxGeometry relative="1" as="geometry">
            <mxPoint x="185" y="150" as="targetPoint" />
            <Array as="points">
              <mxPoint x="380" y="150" />
              <mxPoint x="380" y="90" />
              <mxPoint x="210" y="90" />
              <mxPoint x="210" y="150" />
            </Array>
          </mxGeometry>
        </mxCell>
        <mxCell id="Objv7hpHMwCVzTa5Py58-10" value="" style="edgeStyle=none;rounded=0;orthogonalLoop=1;jettySize=auto;html=1;entryX=0;entryY=0.5;entryDx=0;entryDy=0;" parent="s2oemkyCUpfugdkir3hg-1" source="Objv7hpHMwCVzTa5Py58-4" target="Objv7hpHMwCVzTa5Py58-9" edge="1">
          <mxGeometry relative="1" as="geometry">
            <Array as="points">
              <mxPoint x="170" y="230" />
              <mxPoint x="170" y="150" />
            </Array>
          </mxGeometry>
        </mxCell>
        <mxCell id="Objv7hpHMwCVzTa5Py58-23" style="edgeStyle=none;rounded=0;orthogonalLoop=1;jettySize=auto;html=1;entryX=1;entryY=0.5;entryDx=0;entryDy=0;" parent="s2oemkyCUpfugdkir3hg-1" source="Objv7hpHMwCVzTa5Py58-9" target="Objv7hpHMwCVzTa5Py58-22" edge="1">
          <mxGeometry relative="1" as="geometry">
            <Array as="points">
              <mxPoint x="415" y="150" />
              <mxPoint x="415" y="300" />
            </Array>
          </mxGeometry>
        </mxCell>
        <mxCell id="Objv7hpHMwCVzTa5Py58-26" style="edgeStyle=none;rounded=0;orthogonalLoop=1;jettySize=auto;html=1;" parent="s2oemkyCUpfugdkir3hg-1" source="Objv7hpHMwCVzTa5Py58-22" target="Objv7hpHMwCVzTa5Py58-4" edge="1">
          <mxGeometry relative="1" as="geometry">
            <Array as="points">
              <mxPoint x="90" y="300" />
            </Array>
          </mxGeometry>
        </mxCell>
      </root>
    </mxGraphModel>
  </diagram>
</mxfile>
